<mxfile host="app.diagrams.net" modified="2023-05-30T09:42:26.776Z" agent="Mozilla/5.0 (Windows NT 10.0; Win64; x64) AppleWebKit/537.36 (KHTML, like Gecko) Chrome/113.0.0.0 Safari/537.36 Edg/113.0.1774.57" etag="7SWlpZ3OWhVchq9-nLJA" version="21.3.5" type="github">
  <diagram name="Page-1" id="1jzRu7yWlhSrJ6u4bMnb">
    <mxGraphModel dx="794" dy="1580" grid="1" gridSize="10" guides="1" tooltips="1" connect="1" arrows="1" fold="1" page="1" pageScale="1" pageWidth="850" pageHeight="1100" math="0" shadow="0">
      <root>
        <mxCell id="0" />
        <mxCell id="1" parent="0" />
        <mxCell id="_CKV8UfmycrCGxTpbYPW-5" value="" style="edgeStyle=orthogonalEdgeStyle;rounded=0;orthogonalLoop=1;jettySize=auto;html=1;" edge="1" parent="1" source="_CKV8UfmycrCGxTpbYPW-3" target="_CKV8UfmycrCGxTpbYPW-4">
          <mxGeometry relative="1" as="geometry" />
        </mxCell>
        <mxCell id="_CKV8UfmycrCGxTpbYPW-3" value="Start" style="strokeWidth=1;html=1;shape=mxgraph.flowchart.terminator;whiteSpace=wrap;" vertex="1" parent="1">
          <mxGeometry x="340" y="-920" width="120" height="40" as="geometry" />
        </mxCell>
        <mxCell id="_CKV8UfmycrCGxTpbYPW-7" value="" style="edgeStyle=orthogonalEdgeStyle;rounded=0;orthogonalLoop=1;jettySize=auto;html=1;" edge="1" parent="1" source="_CKV8UfmycrCGxTpbYPW-4" target="_CKV8UfmycrCGxTpbYPW-6">
          <mxGeometry relative="1" as="geometry" />
        </mxCell>
        <mxCell id="_CKV8UfmycrCGxTpbYPW-4" value="Select file from local directory" style="whiteSpace=wrap;html=1;strokeWidth=1;" vertex="1" parent="1">
          <mxGeometry x="340" y="-860" width="120" height="60" as="geometry" />
        </mxCell>
        <mxCell id="_CKV8UfmycrCGxTpbYPW-11" value="" style="edgeStyle=orthogonalEdgeStyle;rounded=0;orthogonalLoop=1;jettySize=auto;html=1;" edge="1" parent="1" source="_CKV8UfmycrCGxTpbYPW-6" target="_CKV8UfmycrCGxTpbYPW-10">
          <mxGeometry relative="1" as="geometry" />
        </mxCell>
        <mxCell id="_CKV8UfmycrCGxTpbYPW-6" value="Upload file" style="whiteSpace=wrap;html=1;strokeWidth=1;" vertex="1" parent="1">
          <mxGeometry x="340" y="-780" width="120" height="60" as="geometry" />
        </mxCell>
        <mxCell id="_CKV8UfmycrCGxTpbYPW-17" value="" style="edgeStyle=orthogonalEdgeStyle;rounded=0;orthogonalLoop=1;jettySize=auto;html=1;" edge="1" parent="1" source="_CKV8UfmycrCGxTpbYPW-10" target="_CKV8UfmycrCGxTpbYPW-16">
          <mxGeometry relative="1" as="geometry" />
        </mxCell>
        <mxCell id="_CKV8UfmycrCGxTpbYPW-31" value="" style="edgeStyle=orthogonalEdgeStyle;rounded=0;orthogonalLoop=1;jettySize=auto;html=1;entryX=1;entryY=0.5;entryDx=0;entryDy=0;entryPerimeter=0;" edge="1" parent="1" source="_CKV8UfmycrCGxTpbYPW-10" target="_CKV8UfmycrCGxTpbYPW-23">
          <mxGeometry relative="1" as="geometry">
            <mxPoint x="520" y="-510" as="targetPoint" />
            <Array as="points">
              <mxPoint x="521" y="-650" />
              <mxPoint x="521" y="-320" />
            </Array>
          </mxGeometry>
        </mxCell>
        <mxCell id="_CKV8UfmycrCGxTpbYPW-10" value="Does it have a data?" style="rhombus;whiteSpace=wrap;html=1;strokeWidth=1;" vertex="1" parent="1">
          <mxGeometry x="345" y="-700" width="110" height="100" as="geometry" />
        </mxCell>
        <mxCell id="_CKV8UfmycrCGxTpbYPW-20" value="" style="edgeStyle=orthogonalEdgeStyle;rounded=0;orthogonalLoop=1;jettySize=auto;html=1;" edge="1" parent="1" source="_CKV8UfmycrCGxTpbYPW-16" target="_CKV8UfmycrCGxTpbYPW-19">
          <mxGeometry relative="1" as="geometry" />
        </mxCell>
        <mxCell id="_CKV8UfmycrCGxTpbYPW-16" value="Process data into Internal Table" style="whiteSpace=wrap;html=1;strokeWidth=1;" vertex="1" parent="1">
          <mxGeometry x="340" y="-580" width="120" height="60" as="geometry" />
        </mxCell>
        <mxCell id="_CKV8UfmycrCGxTpbYPW-18" value="Y" style="text;strokeColor=none;align=center;fillColor=none;html=1;verticalAlign=middle;whiteSpace=wrap;rounded=0;" vertex="1" parent="1">
          <mxGeometry x="395" y="-610" width="60" height="30" as="geometry" />
        </mxCell>
        <mxCell id="_CKV8UfmycrCGxTpbYPW-22" value="" style="edgeStyle=orthogonalEdgeStyle;rounded=0;orthogonalLoop=1;jettySize=auto;html=1;" edge="1" parent="1" source="_CKV8UfmycrCGxTpbYPW-19" target="_CKV8UfmycrCGxTpbYPW-21">
          <mxGeometry relative="1" as="geometry" />
        </mxCell>
        <mxCell id="_CKV8UfmycrCGxTpbYPW-19" value="Set Internal Table data into BDC data" style="whiteSpace=wrap;html=1;strokeWidth=1;" vertex="1" parent="1">
          <mxGeometry x="340" y="-500" width="120" height="60" as="geometry" />
        </mxCell>
        <mxCell id="_CKV8UfmycrCGxTpbYPW-21" value="Call transaction using BDC data" style="whiteSpace=wrap;html=1;strokeWidth=1;" vertex="1" parent="1">
          <mxGeometry x="340" y="-420" width="120" height="60" as="geometry" />
        </mxCell>
        <mxCell id="_CKV8UfmycrCGxTpbYPW-29" value="" style="edgeStyle=orthogonalEdgeStyle;rounded=0;orthogonalLoop=1;jettySize=auto;html=1;" edge="1" parent="1" source="_CKV8UfmycrCGxTpbYPW-21" target="_CKV8UfmycrCGxTpbYPW-23">
          <mxGeometry relative="1" as="geometry">
            <mxPoint x="400" y="-360" as="sourcePoint" />
            <mxPoint x="400" y="-340" as="targetPoint" />
          </mxGeometry>
        </mxCell>
        <mxCell id="_CKV8UfmycrCGxTpbYPW-23" value="End" style="strokeWidth=1;html=1;shape=mxgraph.flowchart.terminator;whiteSpace=wrap;" vertex="1" parent="1">
          <mxGeometry x="340" y="-340" width="120" height="40" as="geometry" />
        </mxCell>
      </root>
    </mxGraphModel>
  </diagram>
</mxfile>
